# xmcd
#
# Track frame offsets: 
#        150
#        14367
#        27912
#        41828
#        53482
#        64852
#        78122
#        89602
#        102522
#        115081
#        126617
#        139945
#        151807
#        163888
#        177002
#        191135
#        204780
#        216471
#        231977
#        246341
#        259284
#        272210
#        286029
#        295717
#        307472
#        321562
#
# Disc length: 4436 seconds
#
# Revision: 0
# Processed by: cddbd v1.5.2PL0 Copyright (c) Steve Scherf et al.
# Submitted via: ExactAudioCopyFreeDBPlugin 1.0
#
DISCID=9211521a
DTITLE=Various Artist - No More Doggin': The RPM Records Story Vol. 1
DTITLE=1950-1953 [CD2]
DYEAR=2014
DGENRE=R&B
TTITLE0=Rosco Gordon - No More Doggin'
TTITLE1=Lightnin' Hopkins - Last Affair
TTITLE2=Sunny Blair - Glad To Be Back Home
TTITLE3=B.B. King - Shake It Up And Go
TTITLE4=Ike Turner singing with Ben Burton and His Orchestra - Trouble A
TTITLE4=nd Heartaches
TTITLE5=Jay Franks and His Rockets Of Rhythm - Stripped Gears
TTITLE6=Rosco Gordon - New Orleans Wimmen
TTITLE7=Bonnie and Ike Turner with Orchestra accompaniment - My Heart Be
TTITLE7=longs To You
TTITLE8=Houston Boines - Superintendent Blues
TTITLE9=Jimmy Huff - She's My Baby
TTITLE10=Little Eddie Kirkland - It's Time For Lovin' To Be Done
TTITLE11=Jimmy Nelson - Sweetest Little Girl
TTITLE12=Gene Forrest and His Orchestra - Aching And Crying
TTITLE13=Lightnin' Hopkins - Another Fool In Town
TTITLE14=Rosco Gordon - Just In From Texas
TTITLE15=B.B. King - Woke Up This Morning
TTITLE16=King Perry and His Orchestra - Vaccinate Me Baby
TTITLE17=Melvin Daniels with The King Curtis Orchestra - I'll Be There
TTITLE18=Rosco Gordon - We're All Loaded (Whiskey Made Me Drunk)
TTITLE19=Jimmy Nelson - Meet Me With Your Black Dress On
TTITLE20=B.B. King - Please Love Me
TTITLE21=Jimmy Huff - Don't You Know
TTITLE22=King Perry and His Orchestra, vocal by Dell St John - Welcome H
TTITLE22=ome Baby
TTITLE23=Little Caesar - Chains Of Love Have Disappeared
TTITLE24=Frankie Irvin and His Orchestra - False Love
TTITLE25=Jimmy Nelson - Cry Hard Luck
EXTD=
EXTT0=
EXTT1=
EXTT2=
EXTT3=
EXTT4=
EXTT5=
EXTT6=
EXTT7=
EXTT8=
EXTT9=
EXTT10=
EXTT11=
EXTT12=
EXTT13=
EXTT14=
EXTT15=
EXTT16=
EXTT17=
EXTT18=
EXTT19=
EXTT20=
EXTT21=
EXTT22=
EXTT23=
EXTT24=
EXTT25=
PLAYORDER=
